# Blender 4.5.3 LTS
# www.blender.org
mtllib mapa.mtl
o Cube
v -6.821600 -0.487428 1.343163
v -6.821600 0.487428 1.343163
v -6.821600 -0.487428 0.000000
v -6.821600 0.487428 0.000000
v 2.442185 -0.487428 1.343163
v 2.442185 0.487428 1.343163
v 2.442185 -0.487428 0.000000
v 2.442185 0.487428 0.000000
v -1.145150 -0.487428 4.578701
v -1.145150 0.487428 4.578701
v 2.452437 -0.487428 4.562360
v 2.452437 0.487428 4.562360
v 0.809441 -0.487428 5.663723
v 0.809441 0.487428 5.663723
v 0.653644 -0.487428 4.570531
v 0.653644 0.487428 4.570531
v 0.464401 -0.487428 1.343163
v 0.464401 0.487428 1.343163
v -6.821600 -0.487428 -1.343163
v -6.821600 0.487428 -1.343163
v 2.442185 -0.487428 -1.343163
v 2.442185 0.487428 -1.343163
v -1.145150 -0.487428 -4.578701
v -1.145150 0.487428 -4.578701
v 2.452437 -0.487428 -4.562360
v 2.452437 0.487428 -4.562360
v 0.809441 -0.487428 -5.663723
v 0.809441 0.487428 -5.663723
v 0.653644 -0.487428 -4.570531
v 0.653644 0.487428 -4.570531
v 0.464401 -0.487428 -1.343163
v 0.464401 0.487428 -1.343163
v 0.440721 -0.487428 0.000000
v 0.440721 0.487428 0.000000
vn -1.0000 -0.0000 -0.0000
vn -0.0000 1.0000 -0.0000
vn 1.0000 -0.0000 -0.0000
vn 1.0000 -0.0000 -0.0032
vn -0.0000 -1.0000 -0.0000
vn 0.5568 -0.0000 0.8306
vn -0.4853 -0.0000 0.8743
vn -0.4952 -0.0000 0.8688
vn 1.0000 -0.0000 0.0032
vn 0.5568 -0.0000 -0.8306
vn -0.4853 -0.0000 -0.8743
vn -0.4952 -0.0000 -0.8688
vt 0.375000 0.000000
vt 0.625000 0.000000
vt 0.625000 0.250000
vt 0.375000 0.250000
vt 0.625000 0.875000
vt 0.625000 1.000000
vt 0.375000 0.500000
vt 0.625000 0.500000
vt 0.625000 0.750000
vt 0.375000 0.750000
vt 0.250000 0.500000
vt 0.250000 0.750000
vt 0.750000 0.500000
vt 0.875000 0.500000
vt 0.875000 0.750000
vt 0.750000 0.750000
vt 0.375000 0.875000
vt 0.375000 1.000000
vt 0.125000 0.500000
vt 0.125000 0.750000
s 0
f 1/1/1 2/2/1 4/3/1 3/4/1
f 18/5/2 2/6/2 10/6/2 16/5/2
f 7/7/3 8/8/3 6/9/3 5/10/3
f 5/10/4 6/9/4 12/9/4 11/10/4
f 33/11/5 7/7/5 5/10/5 17/12/5
f 34/13/2 4/14/2 2/15/2 18/16/2
f 17/17/5 5/10/5 11/10/5 15/17/5
f 12/9/2 16/5/2 10/6/2 14/6/2
f 9/18/5 15/17/5 11/10/5 13/18/5
f 11/10/6 12/9/6 14/6/6 13/18/6
f 10/6/7 9/18/7 13/18/7 14/6/7
f 1/18/8 9/18/8 10/6/8 2/6/8
f 6/9/2 18/5/2 16/5/2 12/9/2
f 1/18/5 17/17/5 15/17/5 9/18/5
f 19/1/1 3/4/1 4/3/1 20/2/1
f 32/5/2 30/5/2 24/6/2 20/6/2
f 7/7/3 21/10/3 22/9/3 8/8/3
f 21/10/9 25/10/9 26/9/9 22/9/9
f 33/11/5 31/12/5 21/10/5 7/7/5
f 34/13/2 32/16/2 20/15/2 4/14/2
f 31/17/5 29/17/5 25/10/5 21/10/5
f 26/9/2 28/6/2 24/6/2 30/5/2
f 23/18/5 27/18/5 25/10/5 29/17/5
f 25/10/10 27/18/10 28/6/10 26/9/10
f 24/6/11 28/6/11 27/18/11 23/18/11
f 19/18/12 20/6/12 24/6/12 23/18/12
f 22/9/2 26/9/2 30/5/2 32/5/2
f 19/18/5 23/18/5 29/17/5 31/17/5
f 8/8/2 34/13/2 18/16/2 6/9/2
f 8/8/2 22/9/2 32/16/2 34/13/2
f 3/19/5 33/11/5 17/12/5 1/20/5
f 3/19/5 19/20/5 31/12/5 33/11/5
